<?xml version="1.0" ?><svg xmlns="http://www.w3.org/2000/svg" width="142.39934mm" height="181.98886mm" viewBox="0 0 142.39934 181.98886">
    <path d="m -1062.8747,-325.75768 3.1569,-131.88718 44.4737,-2.59188 -2.0492,-102.72843 13.9014,-0.39876 0.6647,-30.65404 81.0827,2.69158 -1.3292,29.45779 24.3691,5.38315 5.1507,48.34865 37.883,1.79439 5.3169,180.18598 z" fill="#ffde77" paint-order="markers stroke fill" transform="translate(-238.7408,50.928959) matrix(0.56649895,0,0,0.56649895,851.13571,312.00522)"/>
    <path d="m -975.35029,-319.78217 c -76.68131,-0.49665 -103.33561,-1.06889 -104.51031,-2.24371 -2.8637,-2.8641 -0.2819,-5.45208 6.349,-6.36422 l 6.4282,-0.88425 v -58.25392 c 0,-32.03964 0.4848,-61.09053 1.0773,-64.55752 0.8174,-11.40997 1.2009,-12.09869 30.9338,-13.23524 l 12.3141,-1.51332 -0.097,-46.80724 c -0.053,-25.74399 0.364,-48.15727 0.9272,-49.80727 0.8764,-2.56724 1.9728,-3 7.6009,-3 h 6.5768 l 0.2461,-12.33333 c 0.3548,-17.77523 0.395,-18.17445 1.9936,-19.77305 0.854,-0.85403 9.08171,-1.66982 19.94051,-1.97712 l 18.4865,-0.52319 0.8616,-15.69666 c 0.8368,-15.24298 2.2386,-21.90447 4.964,-23.58888 2.3097,-1.42746 2.8966,1.34571 4.2282,19.97936 0.7155,10.01111 1.5748,18.64535 1.9097,19.18722 0.3349,0.54185 6.8905,1.34092 14.5681,1.77569 8.719,0.49376 15.4937,1.58407 18.0471,2.90447 7.07639,2.69741 4.088,9.04509 4.088,16.03381 v 13.91983 c 7.12153,1.96555 15.73728,-1.65299 21.26434,2.22272 5.93767,4.412 2.39296,9.21241 4.69796,27.20248 3.7173,29.01286 3.1421,26.91465 7.1679,26.14698 7.7374,-1.47542 27.7672,-2.17468 31.5364,-1.10097 7.95591,1.02142 4.61433,18.12673 4.8887,25.71339 0.4887,13.51567 1.5229,37.17393 2.2983,52.57393 0.7753,15.4 1.4254,44.5937 1.4447,64.87488 l 0.035,36.87488 6.6883,0.91988 c 4.4553,0.61276 7.1246,1.73519 7.9952,3.36187 1.7518,3.27321 0.332,6.52536 -3.1639,7.24747 -5.7708,1.192 -41.2277,1.37231 -141.7865,0.72103 z m -58.27121,-11.5109 11.8714,-0.84421 v -60.82246 -60.82244 l -5.6666,0.0605 c -3.1167,0.0333 -11.4348,0.18333 -18.4847,0.33333 -11.3128,1.13252 -13.5207,-4.40788 -11.8674,6.60613 2.2149,14.75556 2.8909,48.39898 1.5888,79.07118 -0.7644,18.00581 -0.9992,33.75581 -0.5218,35 0.9801,2.55413 4.2651,2.75594 23.0803,1.41793 z m -8.0691,-14.62017 c -1.5424,-1.54242 -1.9049,-3.47599 -1.3122,-7 1.3858,-8.23898 2.0109,-9.5356 4.5973,-9.5356 3.1813,0 3.8272,1.11546 4.8137,8.31294 0.6161,4.49523 0.2796,6.39204 -1.4389,8.11058 -2.7898,2.7898 -3.9625,2.80953 -6.6599,0.11213 z m 1.2327,-40.1006 c -1.6894,-1.68944 -2.0192,-3.52186 -1.3674,-7.59788 0.4724,-2.95431 1.5572,-6.21286 2.4106,-7.2412 2.3975,-2.88884 6.3313,2.80964 6.3313,9.17154 0,6.35366 -3.7819,9.26016 -7.3745,5.66754 z m -1.9119,-43.01402 c -3.2233,-6.02286 -0.1659,-16.10858 4.3571,-14.37296 2.5384,0.9741 5.4071,10.67938 4.2419,14.35087 -1.0871,3.42491 -6.77,3.43952 -8.599,0.0221 z m 63.67571,95.2271 c 0.4299,-0.34847 1.1753,-19.17786 1.4402,-36.38279 0.70172,-6.59011 -2.79732,-14.89335 4.5927,-15.33881 2.57174,-0.22589 10.922,0.23304 19.0834,-0.29274 19.7914,-1.27498 19.5273,-1.5373 21.6169,21.47916 0.8599,9.47124 1.5591,20.37043 1.5538,24.22043 l -0.01,7 h 16.8001 16.8001 l -1.0351,-31.66667 c -0.5693,-17.41666 -1.1009,-60.16666 -1.1815,-95 -0.081,-34.83333 -0.6609,-70.57456 -1.2898,-79.42493 -0.44259,-16.33844 0.91463,-16.26926 -18.49756,-16.38815 -17.6781,-0.10826 -57.96769,-1.64429 -71.50194,-1.45856 -21.71171,0.29795 -24.91391,-4.04582 -24.17741,4.51298 0.7428,8.63267 0.3604,19.38459 2.7799,45.42533 1.6712,17.98715 2.0842,48.91057 1.5939,119.33333 -0.2068,29.7 -0.3568,54.428 -0.3334,54.95111 0.037,0.82149 30.71071,-0.11493 31.76531,-0.96969 z m 22.37,-86.74596 c -1.3256,-1.32558 -2.0926,-4.46132 -2.0926,-8.55498 0,-8.07757 0.9701,-10.68048 3.9809,-10.68048 2.2165,0 3.9401,2.95864 6.0195,10.33334 1.8763,6.6543 -3.7838,13.02613 -7.9078,8.90212 z m -33.826,-0.83546 c -1.7495,-1.74948 -2.0707,-7.71316 -0.7666,-14.23333 0.5613,-2.80669 1.6132,-4.16667 3.2228,-4.16667 1.791,0 2.7512,1.68627 3.8333,6.7323 1.8441,8.59868 1.8393,8.68181 -0.6514,11.17246 -2.5147,2.51471 -3.5295,2.60386 -5.6381,0.49524 z m 63.6711,-3.84958 c -2.1253,-3.97123 -0.3451,-15.88375 2.3737,-15.88375 3.2503,0 5.6,4.18943 5.6462,10.06667 0.063,8.04796 -4.8995,11.64756 -8.0199,5.81708 z m -28.1078,-46.09074 c -1.9176,-2.31265 -2.2903,-11.86981 -0.707,-18.12634 1.1961,-4.72643 5.3705,-4.85469 8.3827,-0.25755 3.3182,5.06432 4.011,15.55043 1.2122,18.34923 -2.8511,2.85109 -6.5407,2.86549 -8.8879,0.0347 z m 32.3762,0.068 c -2.4165,-1.6926 -2.8728,-3.32589 -2.8728,-10.28256 0,-6.8191 0.4667,-8.56178 2.6597,-9.93135 3.6499,-2.27942 7.414,1.56394 8.6403,8.82231 -0.3386,7.86325 -2.70486,15.07783 -8.4272,11.3916 z m -66.2704,-5.10533 c -1.5752,-2.40405 -1.8917,-4.80584 -1.2217,-9.2732 1.7115,-11.41358 7.1745,-13.56808 9.8622,-3.88949 2.0537,7.39572 1.746,11.70209 -1.0146,14.20038 -3.335,3.01815 -5.1284,2.77411 -7.6259,-1.03769 z m -3.6024,-37.63366 -5,-2.0739 v -10.55706 c 0,-10.28916 0.093,-10.59253 3.6667,-11.95441 5.7229,-2.18101 10.1741,-2.71517 12.0732,-1.44887 1.603,1.06884 5.5934,16.63299 5.5934,21.81648 0,6.06611 -7.3199,7.95634 -16.3333,4.21776 z m 6.375,-12.12202 c -0.5102,-3.48334 -1.4784,-6.90334 -2.1514,-7.6 -2.3065,-2.38763 -3.6881,1.17885 -2.944,7.6 0.6002,5.18021 1.2154,6.33333 3.3785,6.33333 2.3964,0 2.5576,-0.59464 1.7169,-6.33333 z m 60.2297,8.87742 c -6.76582,-2.91681 -5.00484,-3.86545 -4.6667,-10.92888 0.3499,-7.30834 0.7785,-8.4391 3.7287,-9.83752 10.8641,-5.14966 13.9141,-3.23679 15.2875,9.58767 0.7932,7.40637 0.5707,9.24801 -1.3774,11.40063 -2.9278,3.23514 -6.5385,3.17337 -12.9721,-0.2219 z m 5.7082,-12.87742 c 0.018,-3.71434 -0.4458,-4.33334 -3.2435,-4.33334 -3.077,0 -3.1848,0.24836 -1.8826,4.33334 0.7598,2.38333 1.6608,5.21652 2.0024,6.29596 0.9976,3.15334 3.0991,-1.08226 3.1237,-6.29596 z m -37.3129,11.66666 c -2.0055,-2.00548 -2.6667,-4.44444 -2.6667,-9.83674 0,-8.11915 1.3746,-9.90486 8.5163,-11.0638 4.3136,-0.7 4.8899,-0.41595 6.2173,3.06452 0.8046,2.10981 1.7922,6.60056 2.1946,9.97942 0.6402,5.37596 0.341,6.41698 -2.395,8.33334 -4.1959,2.93892 -8.6289,2.76082 -11.8665,-0.47674 z m 5.3333,-11.33333 c 0,-3.25925 -0.6031,-4.66667 -2,-4.66667 -2.0391,0 -2.9131,6.64246 -1.1111,8.44444 1.9927,1.99264 3.1111,0.63451 3.1111,-3.77777 z m 95.9639,171.66667 c -0.02,-14.48333 -0.6166,-32.03333 -1.326,-39 -0.7095,-6.96667 -1.06939,-33.66624 -2.0983,-59.29508 -0.80347,-20.01347 3.32718,-48.57219 -4.76119,-47.64868 l -24.44501,0.0763 0.3287,37.10041 c 0.1808,20.40521 0.9162,47.30038 1.6342,59.76705 0.718,12.46667 1.7092,34.51667 2.2027,49 l 0.8973,26.33333 h 13.8019 13.8018 z m -17.2503,14.42099 c -1.7469,-3.26407 -1.7399,-7.40575 0.023,-13.75432 2.3029,-8.29236 6.5543,-6.01556 8.4555,4.52829 1.6107,8.93263 -4.8647,15.9788 -8.4787,9.22603 z m -3.7802,-37.68766 c -2.7716,-2.77156 -1.9125,-11.22138 1.5501,-15.24692 3.0098,-3.49901 3.2109,-3.5469 4.5118,-1.07434 2.8046,5.33024 3.3164,13.41909 0.996,15.73953 -2.5874,2.58741 -4.8646,2.77509 -7.0579,0.58173 z m 0.5195,-38.81441 c -3.4636,-2.5326 -4.4332,-13.22409 -1.5926,-17.55947 2.6464,-4.03897 6.8418,-4.36368 8.8121,-0.68204 0.7881,1.47258 1.5593,5.72047 1.7136,9.43975 0.2226,5.36211 -0.2552,7.15443 -2.3075,8.65592 -3.1784,2.32543 -3.6312,2.3354 -6.6256,0.14584 z m -2.9036,-53.89345 c -1.6934,-1.69342 -2.0172,-3.6918 -1.418,-8.75118 1.4165,-11.96013 6.567,-12.97567 8.2684,-1.63028 1.4499,9.66871 -2.1332,15.09868 -6.8504,10.38146 z m -62.7388,130.6412 c 1.0281,-12.93304 1.4428,-30.87803 0.7283,-31.51034 -0.2963,-0.2622 -6.8733,-0.88702 -14.6154,-1.38852 -14.85323,-0.299 -14.61612,-5.76558 -13.0685,8.1602 0.5545,4.9896 1.039,14.92199 1.0767,22.07199 l 0.069,13 h 12.4944 12.4946 z m 13.3491,-226.00002 c 0.4422,-1.65 0.8122,-6.13857 0.8222,-9.9746 0.016,-6.15696 -0.3335,-7.05145 -2.9818,-7.63021 -5.5096,-1.20407 -28.1487,-3.28104 -45,-4.12843 -18.3531,-0.92289 -24.95561,0.31975 -23.3891,4.402 0.4851,1.26411 1.2256,5.97827 1.6456,10.47591 l 0.7636,8.17753 26.0661,0.19283 c 8.33104,0.0616 40.25346,4.91137 42.0734,-1.51503 z m -47.1596,-5.86512 c -7.4131,-1.11636 -13.4751,-3.37613 -12.9868,-4.84116 0.2839,-0.85162 2.8721,-2.06001 5.7515,-2.68529 5.9881,-1.30033 38.7203,-0.52691 42.2353,0.99799 2.9087,1.26181 3.053,5.49878 0.2243,6.58426 -11.64632,0.15926 -23.64226,1.42728 -35.2243,-0.0558 z" fill="#ff7878" transform="translate(-238.7408,50.928959) matrix(0.56649895,0,0,0.56649895,851.13571,312.00522)"/>
</svg>