<!--?xml version="1.0" encoding="utf-8"?-->
<!-- Svg Vector Icons : http://www.onlinewebfonts.com/icon -->

<svg version="1.1" xmlns="http://www.w3.org/2000/svg" xmlns:xlink="http://www.w3.org/1999/xlink" x="0px" y="0px" viewBox="0 0 256 256" enable-background="new 0 0 256 256" xml:space="preserve">
<metadata> Svg Vector Icons : http://www.onlinewebfonts.com/icon </metadata>
<g><g><g><path fill="#ffffff" data-title="Layer 0" xs="0" d="M186.2,12.2c-8.2,1.2-15,2.3-15.1,2.4c-0.1,0.1,1.3,2.2,3.2,4.6c3.2,4.1,3.4,4.4,2.7,5.1c-0.6,0.6-68,54.3-146.3,116.6L10,157.3l0.8,1.2c0.5,0.6,1.8,2.3,3.1,3.6l2.2,2.5l83-66.6c45.6-36.6,83.2-66.7,83.5-66.9c0.3-0.2,1.8,1.3,4.1,4.1c1.9,2.4,3.6,4.3,3.7,4.2s2.4-5.8,5.1-12.6c2.7-6.9,5.3-13.4,5.8-14.7c0.6-1.5,0.7-2.2,0.3-2.1C201.3,10,194.3,11,186.2,12.2z"/><path fill="#ffffff" data-title="Layer 1" xs="1" d="M210.5,155.7V246h17.8H246v-90.4V65.3h-17.8h-17.8L210.5,155.7L210.5,155.7z M238.6,155.7v83h-10.4h-10.4v-83v-83h10.4h10.4V155.7z"/><path fill="#ffffff" data-title="Layer 2" xs="2" d="M164.8,166.9V246h17.8h17.8v-79.1V87.9h-17.8h-17.8L164.8,166.9L164.8,166.9z M193,166.9v71.7h-10.4h-10.4v-71.7V95.2h10.4H193V166.9z"/><path fill="#ffffff" data-title="Layer 3" xs="3" d="M119.2,184v62h17.8h17.8v-62v-62h-17.8h-17.8V184z M147.3,184v54.7h-10.4h-10.4V184v-54.7h10.4h10.4V184z"/><path fill="#ffffff" data-title="Layer 4" xs="4" d="M73.4,156c-0.2,0.1-0.3,20.5-0.3,45.2V246h17.8h17.8v-45.2v-45.2H91.1C81.5,155.7,73.5,155.8,73.4,156z M101.2,200.8v37.8H90.8H80.4v-37.5c0-20.7,0.1-37.7,0.3-37.8c0.1-0.2,4.8-0.3,10.4-0.3h10.1V200.8z"/><path fill="#ffffff" data-title="Layer 5" xs="5" d="M27.4,216.1v30h17.8h17.8v-30v-30H45.1H27.4V216.1z M55.5,216.1v22.6H45.1H34.8v-22.6v-22.6h10.4h10.4V216.1z"/></g></g></g>
</svg>